<svg width="280" height="280" viewBox="0 0 280 280" fill="none" xmlns="http://www.w3.org/2000/svg">
<g clip-path="url(#clip0_2410_2801)">
<path d="M279.999 26.6875H266.699V253.313H279.999V26.6875Z" fill="#FFFFF8"/>
<path d="M266.7 253.312H253.312V266.7H266.7V253.312Z" fill="#FFFFF8"/>
<path d="M266.7 13.3H253.312V26.6875H266.7V13.3Z" fill="#FFFFF8"/>
<path d="M253.312 226.625H240.012V240.013H253.312V226.625Z" fill="#FFFFF8"/>
<path d="M253.312 39.9875H240.012V53.2875H253.312V39.9875Z" fill="#FFFFF8"/>
<path d="M253.313 266.7H26.6875V280H253.313V266.7Z" fill="#FFFFF8"/>
<path d="M200.025 53.2876H106.662V66.6751H93.3625V119.963H106.662V106.663H186.725V119.963H173.337V133.35H160.038V146.65H146.65V159.95H66.675V146.65H53.375V186.638H66.675V173.338H133.35V186.638H66.675V200.025H93.3625V213.325H106.662V200.025H160.038V186.638H173.337V159.95H186.725V146.65H200.025V213.325H213.325V66.6751H200.025V53.2876Z" fill="#FFFFF8"/>
<path d="M200.025 213.325H106.662V226.625H200.025V213.325Z" fill="#FFFFF8"/>
<path d="M93.3625 119.962H80.0625V133.35H93.3625V119.962Z" fill="#FFFFF8"/>
<path d="M80.0633 133.35H66.6758V146.65H80.0633V133.35Z" fill="#FFFFF8"/>
<path d="M253.313 0H26.6875V13.3H253.313V0Z" fill="#FFFFF8"/>
<path d="M39.9875 226.625H26.6875V240.013H39.9875V226.625Z" fill="#FFFFF8"/>
<path d="M39.9875 39.9875H26.6875V53.2875H39.9875V39.9875Z" fill="#FFFFF8"/>
<path d="M26.6867 253.312H13.3867V266.7H26.6867V253.312Z" fill="#FFFFF8"/>
<path d="M26.6867 13.3H13.3867V26.6875H26.6867V13.3Z" fill="#FFFFF8"/>
<path d="M13.3875 26.6875H0V253.313H13.3875V26.6875Z" fill="#FFFFF8"/>
</g>
<defs>
<clipPath id="clip0_2410_2801">
<rect width="280" height="280" fill="white"/>
</clipPath>
</defs>
</svg>
