<svg width="280" height="280" viewBox="0 0 280 280" fill="none" xmlns="http://www.w3.org/2000/svg">
    <g clip-path="url(#clip0_2410_2778)">
        <path d="M279.999 26.6875H266.699V253.313H279.999V26.6875Z" fill="#000000" />
        <path d="M266.7 253.312H253.312V266.7H266.7V253.312Z" fill="#000000" />
        <path d="M266.7 13.3H253.312V26.6875H266.7V13.3Z" fill="#000000" />
        <path d="M253.312 226.625H240.012V240.013H253.312V226.625Z" fill="#000000" />
        <path d="M253.312 39.9875H240.012V53.2875H253.312V39.9875Z" fill="#000000" />
        <path d="M253.313 266.7H26.6875V280H253.313V266.7Z" fill="#000000" />
        <path
            d="M200.025 53.2875H173.337V39.9875H160.038V26.6875H66.675V39.9875H133.35V53.2875H66.675V39.9875H53.375V79.975H66.675V66.675H160.038V79.975H173.337V93.3625H186.725V106.662H200.025V119.962H106.662V106.662H93.3625V213.325H106.662V133.35H200.025V213.325H213.325V66.675H200.025V53.2875Z"
            fill="#000000" />
        <path d="M200.025 213.325H106.662V226.625H200.025V213.325Z" fill="#000000" />
        <path d="M186.725 173.337H173.338V186.637H186.725V173.337Z" fill="#000000" />
        <path d="M186.725 146.65H173.338V159.95H186.725V146.65Z" fill="#000000" />
        <path d="M173.337 186.637H133.35V200.025H173.337V186.637Z" fill="#000000" />
        <path d="M133.351 173.337H120.051V186.637H133.351V173.337Z" fill="#000000" />
        <path d="M133.351 146.65H120.051V159.95H133.351V146.65Z" fill="#000000" />
        <path d="M93.3625 93.3625H80.0625V106.663H93.3625V93.3625Z" fill="#000000" />
        <path d="M80.0633 79.9751H66.6758V93.3626H80.0633V79.9751Z" fill="#000000" />
        <path d="M253.313 0H26.6875V13.3H253.313V0Z" fill="#000000" />
        <path d="M39.9875 226.625H26.6875V240.013H39.9875V226.625Z" fill="#000000" />
        <path d="M39.9875 39.9875H26.6875V53.2875H39.9875V39.9875Z" fill="#000000" />
        <path d="M26.6867 253.312H13.3867V266.7H26.6867V253.312Z" fill="#000000" />
        <path d="M26.6867 13.3H13.3867V26.6875H26.6867V13.3Z" fill="#000000" />
        <path d="M13.3875 26.6875H0V253.313H13.3875V26.6875Z" fill="#000000" />
    </g>
    <defs>
        <clipPath id="clip0_2410_2778">
            <rect width="280" height="280" fill="white" />
        </clipPath>
    </defs>
</svg>